<svg xmlns="http://www.w3.org/2000/svg" enable-background="new 0 0 100 100" viewBox="0 0 100 100"><path d="M64.193 47.63c2.334 0 4.465 1.302 5.698 3.484.256.452.726.706 1.21.706 1.029.026 1.747-1.183 1.208-2.074-1.708-3.019-4.818-4.894-8.117-4.894-12.607.418-12.524 19.726 0 20.216 5.312 0 9.473-4.44 9.473-10.108-.033-1.828-2.747-1.825-2.779 0 0 4.11-2.94 7.329-6.695 7.329C55.358 61.976 55.299 47.89 64.193 47.63zM44.737 54.982c.211-5.297-4.149-10.216-9.474-10.131-12.608.419-12.523 19.727 0 20.215C40.576 65.067 44.737 60.627 44.737 54.982zM28.569 54.959c-.157-6.239 7.012-9.771 11.312-5.363 4.305 4.223 1.52 12.82-4.618 12.693C31.573 62.288 28.569 59.001 28.569 54.959z"/><path d="M86.094,24.562c-10.864-8.869-24.123-9.672-24.451-8.483c0,0-1.11,1.268-1.11,1.268c-0.669,0.722-0.299,1.989,0.647,2.245
			c0.674,0.202,1.328,0.409,1.965,0.62c-9.388-1.933-19.11-1.551-28.487,0.298c1.233-0.426,2.539-0.838,3.918-1.229
			c0.946-0.234,1.333-1.5,0.688-2.227c-0.411-0.44-1.054-1.537-1.83-1.45c-0.02-0.083-12.775,0.089-23.438,8.957
			c-0.078,0.141-1.943,3.515-4.18,9.224c-0.626,1.723,1.884,2.697,2.587,1.014c1.821-4.647,3.413-7.747,3.883-8.63
			c4.241-3.105,8.396-4.973,11.883-6.096c-7.792,3.468-11.499,6.977-11.703,7.174c-1.146,1.104,0.232,2.987,1.629,2.22
			c18.938-10.094,43.589-10.543,62.559,0.004c1.369,0.775,2.794-1.151,1.615-2.231c-0.222-0.211-4.747-4.436-14.232-8.206
			c4.014,0.839,9.827,2.756,15.764,7.133c1.277,2.416,10.979,21.53,11.101,44.45c-1.563,2.222-8.137,10.217-22.156,10.904
			c-0.682-0.818-2.069-2.485-3.488-4.216c9.308-3.242,12.995-9.069,13.157-9.332c0.773-1.24-0.729-2.707-1.947-1.889
			C62.612,77.828,38.071,77.51,20.207,66.105c-1.166-0.879-2.784,0.641-1.983,1.861c0.156,0.257,3.703,5.949,12.729,9.243
			c-1.455,1.805-2.906,3.551-3.608,4.393c-8.549-0.112-18.133-4.802-22.157-10.959c0.048-9.99,1.869-20.379,5.411-30.886
			c0.569-1.73-2.029-2.612-2.632-0.888c-3.59,11.159-5.989,22.27-5.37,32.881c0.288,0.493,7.253,12.084,25.33,12.656
			c0.424,0.014,0.834-0.168,1.107-0.494c0.03-0.035,2.975-3.538,5.339-6.532c0.612-0.734,0.225-1.943-0.693-2.192
			c4.547,1.498,20.09,4.356,32.365,0.304c-0.616,0.444-0.728,1.402-0.237,1.981c2.357,2.907,5.217,6.324,5.245,6.358
			c0.275,0.327,0.651,0.51,1.11,0.497c16.405-0.52,23.844-10.359,25.241-12.444C98.707,47.531,86.21,24.87,86.094,24.562z"/></svg>