<svg xmlns="http://www.w3.org/2000/svg" fill-rule="evenodd" stroke-linejoin="round" stroke-miterlimit="2" clip-rule="evenodd" viewBox="0 0 24 24"><g transform="translate(-40 -40)"><rect width="24" height="24" x="40" y="40" fill="none"/><path fill="#2c2c2c" d="M16.85,15.81L12.052,15.81C11.452,15.81 10.965,15.325 10.965,14.727L10.965,9.818C10.965,9.22 11.452,8.735 12.052,8.735L23.507,8.735C24.061,8.735 24.526,9.15 24.587,9.699C25.178,15.007 23.801,18.825 21.437,21.332C19.048,23.865 15.615,25.083 12.001,25.083C11.998,25.083 11.996,25.083 11.993,25.083C4.815,25.083 -1.094,19.178 -1.094,12C-1.094,4.822 4.815,-1.083 11.993,-1.083C15.276,-1.083 18.442,0.152 20.857,2.376C21.078,2.579 21.204,2.863 21.207,3.162C21.209,3.46 21.088,3.747 20.871,3.953L17.304,7.353C16.903,7.736 16.277,7.755 15.852,7.399C14.771,6.49 13.404,5.992 11.991,5.992C8.696,5.992 5.987,8.705 5.987,12C5.987,15.295 8.696,18.008 11.991,18.008C11.994,18.008 11.996,18.008 12,18.008C13.979,18.008 15.771,17.449 16.85,15.81ZM18.489,3.228C16.618,1.841 14.342,1.083 11.993,1.083C6.005,1.083 1.08,6.012 1.08,12C1.08,17.988 6.005,22.917 11.993,22.917C11.995,22.917 11.997,22.917 12,22.917C15.002,22.917 17.869,21.953 19.853,19.849C21.716,17.874 22.769,14.917 22.512,10.901L13.139,10.901L13.139,13.644L18.544,13.644C18.89,13.644 19.216,13.809 19.42,14.087C19.625,14.365 19.684,14.724 19.58,15.053C18.374,18.859 15.424,20.174 12.001,20.174C11.998,20.174 11.995,20.174 11.991,20.174C7.506,20.174 3.814,16.485 3.814,12C3.814,7.515 7.506,3.826 11.991,3.826C13.586,3.826 15.14,4.293 16.464,5.158L18.489,3.228Z" transform="matrix(.82828 0 0 .83137 42.214 42.024)"/></g></svg>